<svg width="32" height="32" viewBox="0 0 81 81" fill="none" xmlns="http://www.w3.org/2000/svg">
<path d="M10.125 16.875V64.125C10.125 67.8375 13.1287 70.875 16.875 70.875H64.125C67.8375 70.875 70.875 67.8375 70.875 64.125V16.875C70.875 13.1625 67.8375 10.125 64.125 10.125H16.875C13.1287 10.125 10.125 13.1625 10.125 16.875ZM50.625 30.375C50.625 35.9775 46.1025 40.5 40.5 40.5C34.8975 40.5 30.375 35.9775 30.375 30.375C30.375 24.7725 34.8975 20.25 40.5 20.25C46.1025 20.25 50.625 24.7725 50.625 30.375ZM20.25 57.375C20.25 50.625 33.75 46.9125 40.5 46.9125C47.25 46.9125 60.75 50.625 60.75 57.375V60.75H20.25V57.375Z" fill="white"/>
</svg>
